M48
; DRILL file {KiCad 9.0.1} date 2025-06-18T14:59:04+0100
; FORMAT={-:-/ absolute / metric / decimal}
; #@! TF.CreationDate,2025-06-18T14:59:04+01:00
; #@! TF.GenerationSoftware,Kicad,Pcbnew,9.0.1
; #@! TF.FileFunction,Plated,1,2,PTH
FMAT,2
METRIC
; #@! TA.AperFunction,Plated,PTH,ComponentDrill
T1C0.500
; #@! TA.AperFunction,Plated,PTH,ComponentDrill
T2C0.600
; #@! TA.AperFunction,Plated,PTH,ComponentDrill
T3C0.750
; #@! TA.AperFunction,Plated,PTH,ComponentDrill
T4C0.800
; #@! TA.AperFunction,Plated,PTH,ComponentDrill
T5C0.900
; #@! TA.AperFunction,Plated,PTH,ComponentDrill
T6C0.990
; #@! TA.AperFunction,Plated,PTH,ComponentDrill
T7C1.000
; #@! TA.AperFunction,Plated,PTH,ComponentDrill
T8C1.050
; #@! TA.AperFunction,Plated,PTH,ComponentDrill
T9C1.100
; #@! TA.AperFunction,Plated,PTH,ComponentDrill
T10C1.400
; #@! TA.AperFunction,Plated,PTH,ComponentDrill
T11C1.500
; #@! TA.AperFunction,Plated,PTH,ComponentDrill
T12C2.500
%
G90
G05
T1
X128.97Y-73.32
X129.519Y-71.994
X129.519Y-74.646
X129.644Y-62.646
X130.193Y-61.32
X130.193Y-63.972
X130.845Y-71.445
X130.845Y-75.195
X131.519Y-60.771
X131.519Y-64.521
X132.171Y-71.994
X132.171Y-74.646
X132.72Y-73.32
X132.845Y-61.32
X132.845Y-63.972
X133.394Y-62.646
X179.47Y-27.32
X180.019Y-25.994
X180.019Y-28.646
X181.345Y-25.445
X181.345Y-29.195
X182.671Y-25.994
X182.671Y-28.646
X183.22Y-27.32
X185.644Y-169.994
X186.193Y-168.668
X186.193Y-171.32
X187.519Y-168.119
X187.519Y-171.869
X188.845Y-168.668
X188.845Y-171.32
X189.394Y-169.994
T2
X150.095Y-40.42
X150.095Y-41.92
X150.095Y-45.42
X150.095Y-46.92
X164.095Y-35.62
X164.095Y-37.12
T3
X168.595Y-34.62
X168.595Y-35.89
X168.595Y-37.16
X174.194Y-152.139
X175.464Y-152.139
X176.734Y-152.139
X202.724Y-127.629
X202.724Y-128.899
X202.724Y-130.169
X208.084Y-127.859
X208.084Y-129.129
X208.084Y-130.399
T4
X139.595Y-39.8
X139.595Y-47.42
X139.785Y-50.605
X139.785Y-58.225
X141.015Y-34.42
X142.325Y-50.605
X142.325Y-58.225
X142.595Y-39.8
X142.595Y-47.42
X144.865Y-50.605
X144.865Y-58.225
X145.595Y-37.34
X145.595Y-47.5
X147.405Y-50.605
X147.405Y-58.225
X151.175Y-34.42
X151.4Y-150.24
X151.4Y-160.4
X151.9Y-140.11
X151.9Y-147.73
X152.865Y-126.61
X152.865Y-129.15
X152.865Y-131.69
X152.865Y-134.23
X153.095Y-51.5
X153.095Y-59.12
X154.9Y-140.11
X154.9Y-147.73
X154.9Y-150.34
X154.9Y-160.5
X156.595Y-58.62
X157.285Y-40.305
X157.285Y-47.925
X157.3Y-52.12
X159.8Y-52.12
X159.825Y-40.305
X159.825Y-47.925
X160.485Y-126.61
X160.485Y-129.15
X160.485Y-131.69
X160.485Y-134.23
X161.09Y-166.42
X161.785Y-31.12
X162.365Y-40.305
X162.365Y-47.925
X162.555Y-51.89
X163.36Y-131.42
X164.905Y-40.305
X164.905Y-47.925
X165.095Y-54.43
X166.614Y-148.639
X166.694Y-151.329
X166.694Y-158.949
X166.755Y-58.62
X167.635Y-51.89
X168.17Y-135.215
X168.17Y-137.715
X168.595Y-40.31
X168.595Y-47.93
X168.71Y-166.42
X169.405Y-31.12
X170.595Y-51.62
X170.595Y-61.78
X170.98Y-131.42
X174.595Y-54.31
X174.595Y-61.93
X174.845Y-160.82
X175.9Y-106.3
X175.9Y-113.92
X176.194Y-138.329
X176.194Y-145.949
X176.7Y-118.61
X176.7Y-126.23
X176.774Y-148.639
X177.345Y-160.82
X178.9Y-106.3
X178.9Y-113.92
X179.24Y-118.61
X179.24Y-126.23
X179.903Y-86.53
X179.903Y-89.07
X179.903Y-91.61
X179.903Y-94.15
X179.903Y-96.69
X181.78Y-118.61
X181.78Y-126.23
X181.9Y-106.3
X181.9Y-113.92
X184.32Y-118.61
X184.32Y-126.23
X184.9Y-106.3
X184.9Y-113.92
X185.819Y-137.569
X185.819Y-140.109
X185.819Y-142.649
X185.819Y-145.189
X185.819Y-147.729
X185.819Y-150.269
X185.819Y-152.809
X186.86Y-118.61
X186.86Y-126.23
X187.884Y-131.139
X187.9Y-106.3
X187.9Y-113.92
X189.4Y-118.61
X189.4Y-126.23
X190.9Y-106.3
X190.9Y-113.92
X191.94Y-118.61
X191.94Y-126.23
X193.9Y-106.3
X193.9Y-113.92
X193.93Y-160.42
X194.48Y-118.61
X194.48Y-126.23
X195.142Y-86.53
X195.142Y-89.07
X195.142Y-91.61
X195.142Y-94.15
X195.142Y-96.69
X195.504Y-131.139
X195.979Y-137.569
X195.979Y-140.109
X195.979Y-142.649
X195.979Y-145.189
X195.979Y-147.729
X195.979Y-150.269
X195.979Y-152.809
X196.9Y-106.3
X196.9Y-113.92
X198.17Y-163.11
X198.17Y-170.73
X201.399Y-146.139
X202.67Y-163.11
X202.67Y-170.73
X203.899Y-146.139
X204.09Y-160.42
X206.28Y-157.92
X207.284Y-116.819
X207.284Y-124.439
X207.517Y-165.92
X207.784Y-134.319
X207.784Y-141.939
X208.194Y-145.829
X208.194Y-153.449
X209.4Y-88.0
X209.4Y-111.295
X211.017Y-165.92
X211.4Y-120.549
X211.4Y-130.709
X211.9Y-88.0
X211.9Y-111.295
X213.9Y-157.92
T5
X178.595Y-45.12
X178.595Y-47.66
X205.13Y-175.105
X207.67Y-175.105
X210.21Y-175.105
T6
X151.15Y-162.57
X151.15Y-167.07
X157.65Y-162.57
X157.65Y-167.07
X167.65Y-120.36
X167.65Y-124.86
X174.15Y-120.36
X174.15Y-124.86
T7
X137.4Y-143.92
X137.4Y-146.42
X153.095Y-29.62
X155.595Y-29.62
X217.9Y-78.42
X220.4Y-78.42
T8
X221.9Y-121.139
X221.9Y-128.739
T9
X209.4Y-96.42
X209.4Y-98.96
X209.4Y-101.5
T10
X216.9Y-87.92
X216.9Y-98.08
X216.9Y-102.84
X216.9Y-113.0
X223.4Y-87.92
X223.4Y-98.08
X223.4Y-102.92
X223.4Y-113.08
T11
X140.5Y-82.92
X140.5Y-88.0
X140.5Y-93.08
X140.5Y-98.16
X140.5Y-103.24
X140.5Y-108.32
X165.9Y-82.92
X165.9Y-88.0
X165.9Y-93.08
X165.9Y-98.16
X165.9Y-103.24
X165.9Y-108.32
T12
X130.845Y-73.32
X131.519Y-62.646
X181.345Y-27.32
X187.519Y-169.994
M30
