%TF.GenerationSoftware,KiCad,Pcbnew,9.0.1*%
%TF.CreationDate,2025-06-18T14:58:57+01:00*%
%TF.ProjectId,essaie,65737361-6965-42e6-9b69-6361645f7063,rev?*%
%TF.SameCoordinates,Original*%
%TF.FileFunction,Copper,L2,Bot*%
%TF.FilePolarity,Positive*%
%FSLAX46Y46*%
G04 Gerber Fmt 4.6, Leading zero omitted, Abs format (unit mm)*
G04 Created by KiCad (PCBNEW 9.0.1) date 2025-06-18 14:58:57*
%MOMM*%
%LPD*%
G01*
G04 APERTURE LIST*
G04 Aperture macros list*
%AMRoundRect*
0 Rectangle with rounded corners*
0 $1 Rounding radius*
0 $2 $3 $4 $5 $6 $7 $8 $9 X,Y pos of 4 corners*
0 Add a 4 corners polygon primitive as box body*
4,1,4,$2,$3,$4,$5,$6,$7,$8,$9,$2,$3,0*
0 Add four circle primitives for the rounded corners*
1,1,$1+$1,$2,$3*
1,1,$1+$1,$4,$5*
1,1,$1+$1,$6,$7*
1,1,$1+$1,$8,$9*
0 Add four rect primitives between the rounded corners*
20,1,$1+$1,$2,$3,$4,$5,0*
20,1,$1+$1,$4,$5,$6,$7,0*
20,1,$1+$1,$6,$7,$8,$9,0*
20,1,$1+$1,$8,$9,$2,$3,0*%
G04 Aperture macros list end*
%TA.AperFunction,ComponentPad*%
%ADD10C,3.000000*%
%TD*%
%TA.AperFunction,ComponentPad*%
%ADD11RoundRect,0.248400X-0.651600X-0.651600X0.651600X-0.651600X0.651600X0.651600X-0.651600X0.651600X0*%
%TD*%
%TA.AperFunction,ComponentPad*%
%ADD12C,1.800000*%
%TD*%
%TA.AperFunction,ComponentPad*%
%ADD13C,1.600000*%
%TD*%
%TA.AperFunction,ComponentPad*%
%ADD14O,1.600000X1.600000*%
%TD*%
%TA.AperFunction,ComponentPad*%
%ADD15RoundRect,0.250000X0.550000X-0.550000X0.550000X0.550000X-0.550000X0.550000X-0.550000X-0.550000X0*%
%TD*%
%TA.AperFunction,ComponentPad*%
%ADD16R,2.000000X1.905000*%
%TD*%
%TA.AperFunction,ComponentPad*%
%ADD17O,2.000000X1.905000*%
%TD*%
%TA.AperFunction,ComponentPad*%
%ADD18R,1.498000X1.498000*%
%TD*%
%TA.AperFunction,ComponentPad*%
%ADD19C,1.498000*%
%TD*%
%TA.AperFunction,ComponentPad*%
%ADD20R,1.600000X1.600000*%
%TD*%
%TA.AperFunction,ComponentPad*%
%ADD21R,2.800000X2.800000*%
%TD*%
%TA.AperFunction,ComponentPad*%
%ADD22O,2.800000X2.800000*%
%TD*%
%TA.AperFunction,ComponentPad*%
%ADD23R,1.500000X1.050000*%
%TD*%
%TA.AperFunction,ComponentPad*%
%ADD24O,1.500000X1.050000*%
%TD*%
%TA.AperFunction,ComponentPad*%
%ADD25C,0.800000*%
%TD*%
%TA.AperFunction,ComponentPad*%
%ADD26C,5.000000*%
%TD*%
%TA.AperFunction,ComponentPad*%
%ADD27RoundRect,0.250000X-0.550000X-0.550000X0.550000X-0.550000X0.550000X0.550000X-0.550000X0.550000X0*%
%TD*%
%TA.AperFunction,ComponentPad*%
%ADD28R,1.800000X1.800000*%
%TD*%
%TA.AperFunction,ComponentPad*%
%ADD29R,1.050000X1.500000*%
%TD*%
%TA.AperFunction,ComponentPad*%
%ADD30O,1.050000X1.500000*%
%TD*%
%TA.AperFunction,ComponentPad*%
%ADD31R,1.200000X1.200000*%
%TD*%
%TA.AperFunction,ComponentPad*%
%ADD32C,1.200000*%
%TD*%
%TA.AperFunction,ComponentPad*%
%ADD33RoundRect,0.250000X0.750000X-0.600000X0.750000X0.600000X-0.750000X0.600000X-0.750000X-0.600000X0*%
%TD*%
%TA.AperFunction,ComponentPad*%
%ADD34O,2.000000X1.700000*%
%TD*%
%TA.AperFunction,ComponentPad*%
%ADD35RoundRect,0.250000X0.600000X0.750000X-0.600000X0.750000X-0.600000X-0.750000X0.600000X-0.750000X0*%
%TD*%
%TA.AperFunction,ComponentPad*%
%ADD36O,1.700000X2.000000*%
%TD*%
%TA.AperFunction,ComponentPad*%
%ADD37RoundRect,0.250000X-0.600000X-0.750000X0.600000X-0.750000X0.600000X0.750000X-0.600000X0.750000X0*%
%TD*%
%TA.AperFunction,ComponentPad*%
%ADD38C,1.575000*%
%TD*%
%TA.AperFunction,ComponentPad*%
%ADD39C,1.440000*%
%TD*%
%TA.AperFunction,Conductor*%
%ADD40C,0.700000*%
%TD*%
%TA.AperFunction,Conductor*%
%ADD41C,0.500000*%
%TD*%
%TA.AperFunction,Conductor*%
%ADD42C,0.400000*%
%TD*%
G04 APERTURE END LIST*
D10*
%TO.P,T1,4,SB*%
%TO.N,Net-(D1-A)*%
X165900000Y-108320000D03*
%TO.P,T1,3,SA*%
%TO.N,Net-(D2-A)*%
X165900000Y-98160000D03*
%TO.P,T1,2,AB*%
%TO.N,Net-(J1-Pin_2)*%
X140500000Y-82920000D03*
%TO.P,T1,1,AA*%
%TO.N,Net-(J1-Pin_1)*%
X140500000Y-103240000D03*
%TO.P,T1,*%
%TO.N,*%
X165900000Y-82920000D03*
X165900000Y-88000000D03*
X140500000Y-88000000D03*
X165900000Y-93080000D03*
X140500000Y-93080000D03*
X140500000Y-98160000D03*
X165900000Y-103240000D03*
X140500000Y-108320000D03*
%TD*%
D11*
%TO.P,U14,1,OUT*%
%TO.N,output signal*%
X205130000Y-175105000D03*
D12*
%TO.P,U14,2,Vs*%
%TO.N,Net-(U14-Vs)*%
X207670000Y-175105000D03*
%TO.P,U14,3,GND*%
%TO.N,GND*%
X210210000Y-175105000D03*
%TD*%
D13*
%TO.P,R8,1*%
%TO.N,output signal*%
X198170000Y-170730000D03*
D14*
%TO.P,R8,2*%
%TO.N,Net-(D10-K)*%
X198170000Y-163110000D03*
%TD*%
D15*
%TO.P,U2,1,GND*%
%TO.N,ground*%
X157285000Y-47925000D03*
D13*
%TO.P,U2,2,TR*%
%TO.N,Net-(U2-THR)*%
X159825000Y-47925000D03*
%TO.P,U2,3,Q*%
%TO.N,Net-(U2-Q)*%
X162365000Y-47925000D03*
%TO.P,U2,4,R*%
%TO.N,+12*%
X164905000Y-47925000D03*
%TO.P,U2,5,CV*%
%TO.N,Net-(U2-CV)*%
X164905000Y-40305000D03*
%TO.P,U2,6,THR*%
%TO.N,Net-(U2-THR)*%
X162365000Y-40305000D03*
%TO.P,U2,7,DIS*%
%TO.N,Net-(U2-DIS)*%
X159825000Y-40305000D03*
%TO.P,U2,8,VCC*%
%TO.N,+12*%
X157285000Y-40305000D03*
%TD*%
D16*
%TO.P,U1,1,IN*%
%TO.N,Net-(D1-K)*%
X209400000Y-96420000D03*
D17*
%TO.P,U1,2,GND*%
%TO.N,GND*%
X209400000Y-98960000D03*
%TO.P,U1,3,OUT*%
%TO.N,+12V*%
X209400000Y-101500000D03*
%TD*%
D13*
%TO.P,R12,1*%
%TO.N,+12V*%
X154900000Y-140110000D03*
D14*
%TO.P,R12,2*%
%TO.N,Net-(D12-K)*%
X154900000Y-147730000D03*
%TD*%
D18*
%TO.P,SW2,1,C*%
%TO.N,Net-(SW2A-C)*%
X167650000Y-120360000D03*
D19*
%TO.P,SW2,2,D*%
%TO.N,+12V*%
X167650000Y-124860000D03*
%TO.P,SW2,3*%
%TO.N,N/C*%
X174150000Y-120360000D03*
%TO.P,SW2,4*%
X174150000Y-124860000D03*
%TD*%
D20*
%TO.P,C9,1*%
%TO.N,Net-(C9-Pad1)*%
X203899000Y-146139000D03*
D13*
%TO.P,C9,2*%
%TO.N,GND*%
X201399000Y-146139000D03*
%TD*%
D20*
%TO.P,C8,1*%
%TO.N,Net-(C8-Pad1)*%
X174845000Y-160820000D03*
D13*
%TO.P,C8,2*%
%TO.N,GND*%
X177345000Y-160820000D03*
%TD*%
%TO.P,R23,1*%
%TO.N,Net-(R23-Pad1)*%
X176193888Y-138329000D03*
D14*
%TO.P,R23,2*%
%TO.N,Net-(Q2-B)*%
X176193888Y-145949000D03*
%TD*%
D20*
%TO.P,U8,1,E*%
%TO.N,Net-(U8-E)*%
X179902500Y-86530000D03*
D13*
%TO.P,U8,2,D*%
%TO.N,Net-(U8-D)*%
X179902500Y-89070000D03*
%TO.P,U8,3,CC*%
%TO.N,GND*%
X179902500Y-91610000D03*
%TO.P,U8,4,C*%
%TO.N,Net-(U8-C)*%
X179902500Y-94150000D03*
%TO.P,U8,5,DP*%
%TO.N,unconnected-(U8-DP-Pad5)*%
X179902500Y-96690000D03*
%TO.P,U8,6,B*%
%TO.N,Net-(U8-B)*%
X195142500Y-96690000D03*
%TO.P,U8,7,A*%
%TO.N,Net-(U8-A)*%
X195142500Y-94150000D03*
%TO.P,U8,8,CC*%
%TO.N,GND*%
X195142500Y-91610000D03*
%TO.P,U8,9,F*%
%TO.N,Net-(U8-F)*%
X195142500Y-89070000D03*
%TO.P,U8,10,G*%
%TO.N,Net-(U8-G)*%
X195142500Y-86530000D03*
%TD*%
%TO.P,R22,1*%
%TO.N,Net-(D13-A)*%
X166693888Y-151329000D03*
D14*
%TO.P,R22,2*%
%TO.N,Net-(C8-Pad1)*%
X166693888Y-158949000D03*
%TD*%
D20*
%TO.P,C2,1*%
%TO.N,+12V*%
X209400000Y-111294888D03*
D13*
%TO.P,C2,2*%
%TO.N,GND*%
X211900000Y-111294888D03*
%TD*%
D21*
%TO.P,D2,1,K*%
%TO.N,Net-(D1-K)*%
X223400000Y-102920000D03*
D22*
%TO.P,D2,2,A*%
%TO.N,Net-(D2-A)*%
X223400000Y-113080000D03*
%TD*%
D20*
%TO.P,C5,1*%
%TO.N,Net-(U14-Vs)*%
X207517349Y-165920000D03*
D13*
%TO.P,C5,2*%
%TO.N,GND*%
X211017349Y-165920000D03*
%TD*%
%TO.P,R14,1*%
%TO.N,Net-(U7-g)*%
X196900000Y-113920000D03*
D14*
%TO.P,R14,2*%
%TO.N,Net-(U8-G)*%
X196900000Y-106300000D03*
%TD*%
D13*
%TO.P,R21,1*%
%TO.N,Net-(SW2A-C)*%
X175900000Y-113920000D03*
D14*
%TO.P,R21,2*%
%TO.N,GND*%
X175900000Y-106300000D03*
%TD*%
D13*
%TO.P,R24,1*%
%TO.N,Net-(R24-Pad1)*%
X208193888Y-153449000D03*
D14*
%TO.P,R24,2*%
%TO.N,Net-(C9-Pad1)*%
X208193888Y-145829000D03*
%TD*%
D20*
%TO.P,D8,1,K*%
%TO.N,Net-(D8-K)*%
X151175000Y-34420000D03*
D14*
%TO.P,D8,2,A*%
%TO.N,Net-(D8-A)*%
X141015000Y-34420000D03*
%TD*%
D15*
%TO.P,U7,1,CLOCK*%
%TO.N,output alarm strating signal*%
X176700000Y-126230000D03*
D13*
%TO.P,U7,2,CLOCK_INHIBIT*%
%TO.N,GND*%
X179240000Y-126230000D03*
%TO.P,U7,3,RIPPLE_BLANKING_IN*%
%TO.N,unconnected-(U7-RIPPLE_BLANKING_IN-Pad3)*%
X181780000Y-126230000D03*
%TO.P,U7,4,RIPPLE_BLANKING_OUT*%
%TO.N,unconnected-(U7-RIPPLE_BLANKING_OUT-Pad4)*%
X184320000Y-126230000D03*
%TO.P,U7,5,CARRY_OUT*%
%TO.N,unconnected-(U7-CARRY_OUT-Pad5)*%
X186860000Y-126230000D03*
%TO.P,U7,6,f*%
%TO.N,Net-(U7-f)*%
X189400000Y-126230000D03*
%TO.P,U7,7,g*%
%TO.N,Net-(U7-g)*%
X191940000Y-126230000D03*
%TO.P,U7,8,V_{SS}*%
%TO.N,GND*%
X194480000Y-126230000D03*
%TO.P,U7,9,d*%
%TO.N,Net-(U7-d)*%
X194480000Y-118610000D03*
%TO.P,U7,10,a*%
%TO.N,Net-(U7-a)*%
X191940000Y-118610000D03*
%TO.P,U7,11,e*%
%TO.N,Net-(U7-e)*%
X189400000Y-118610000D03*
%TO.P,U7,12,b*%
%TO.N,Net-(U7-b)*%
X186860000Y-118610000D03*
%TO.P,U7,13,c*%
%TO.N,Net-(U7-c)*%
X184320000Y-118610000D03*
%TO.P,U7,14,LAMP_TEST*%
%TO.N,GND*%
X181780000Y-118610000D03*
%TO.P,U7,15,RESET*%
%TO.N,Net-(SW2A-C)*%
X179240000Y-118610000D03*
%TO.P,U7,16,V_{DD}*%
%TO.N,+12V*%
X176700000Y-118610000D03*
%TD*%
%TO.P,R5,1*%
%TO.N,Net-(D9-K)*%
X142595000Y-39800000D03*
D14*
%TO.P,R5,2*%
%TO.N,Net-(U3-DIS)*%
X142595000Y-47420000D03*
%TD*%
D23*
%TO.P,Q4,1,C*%
%TO.N,Net-(D14-A)*%
X202723888Y-130169000D03*
D24*
%TO.P,Q4,2,B*%
%TO.N,Net-(Q3-E)*%
X202723888Y-128899000D03*
%TO.P,Q4,3,E*%
%TO.N,GND*%
X202723888Y-127629000D03*
%TD*%
D25*
%TO.P,H1,1*%
%TO.N,N/C*%
X179470000Y-27320000D03*
X180019175Y-25994175D03*
X180019175Y-28645825D03*
X181345000Y-25445000D03*
D26*
X181345000Y-27320000D03*
D25*
X181345000Y-29195000D03*
X182670825Y-25994175D03*
X182670825Y-28645825D03*
X183220000Y-27320000D03*
%TD*%
D13*
%TO.P,R25,1*%
%TO.N,Net-(C9-Pad1)*%
X195503888Y-131139000D03*
D14*
%TO.P,R25,2*%
%TO.N,Net-(D13-K)*%
X187883888Y-131139000D03*
%TD*%
D25*
%TO.P,H4,1*%
%TO.N,N/C*%
X185644175Y-169994175D03*
X186193350Y-168668350D03*
X186193350Y-171320000D03*
X187519175Y-168119175D03*
D26*
X187519175Y-169994175D03*
D25*
X187519175Y-171869175D03*
X188845000Y-168668350D03*
X188845000Y-171320000D03*
X189394175Y-169994175D03*
%TD*%
D20*
%TO.P,D14,1,K*%
%TO.N,Net-(D14-K)*%
X211400000Y-120549000D03*
D14*
%TO.P,D14,2,A*%
%TO.N,Net-(D14-A)*%
X211400000Y-130709000D03*
%TD*%
D13*
%TO.P,R10,1*%
%TO.N,Net-(R10-Pad1)*%
X170980000Y-131420000D03*
D14*
%TO.P,R10,2*%
%TO.N,Net-(U6-THR)*%
X163360000Y-131420000D03*
%TD*%
D27*
%TO.P,U10,1*%
%TO.N,Net-(U10-Pad1)*%
X185819000Y-137569000D03*
D13*
%TO.P,U10,2*%
%TO.N,Net-(R23-Pad1)*%
X185819000Y-140109000D03*
%TO.P,U10,3*%
%TO.N,output alarm strating signal*%
X185819000Y-142649000D03*
%TO.P,U10,4*%
%TO.N,Net-(U10-Pad1)*%
X185819000Y-145189000D03*
%TO.P,U10,5*%
%TO.N,Net-(C8-Pad1)*%
X185819000Y-147729000D03*
%TO.P,U10,6*%
%TO.N,Net-(D13-K)*%
X185819000Y-150269000D03*
%TO.P,U10,7*%
%TO.N,N/C*%
X185819000Y-152809000D03*
%TO.P,U10,8*%
%TO.N,Net-(R24-Pad1)*%
X195979000Y-152809000D03*
%TO.P,U10,9*%
%TO.N,Net-(C9-Pad1)*%
X195979000Y-150269000D03*
%TO.P,U10,10*%
%TO.N,Net-(R10-Pad1)*%
X195979000Y-147729000D03*
%TO.P,U10,11*%
%TO.N,output signal*%
X195979000Y-145189000D03*
%TO.P,U10,12*%
%TO.N,output alarm strating signal*%
X195979000Y-142649000D03*
%TO.P,U10,13*%
%TO.N,Net-(U6-Q)*%
X195979000Y-140109000D03*
%TO.P,U10,14*%
%TO.N,N/C*%
X195979000Y-137569000D03*
%TD*%
%TO.P,R11,1*%
%TO.N,+12V*%
X168710000Y-166420000D03*
D14*
%TO.P,R11,2*%
%TO.N,Net-(SW1A-C)*%
X161090000Y-166420000D03*
%TD*%
D20*
%TO.P,D13,1,K*%
%TO.N,Net-(D13-K)*%
X176773888Y-148639000D03*
D14*
%TO.P,D13,2,A*%
%TO.N,Net-(D13-A)*%
X166613888Y-148639000D03*
%TD*%
D13*
%TO.P,R13,1*%
%TO.N,+12V*%
X151900000Y-140110000D03*
D14*
%TO.P,R13,2*%
%TO.N,Net-(D11-K)*%
X151900000Y-147730000D03*
%TD*%
D15*
%TO.P,U3,1,GND*%
%TO.N,ground*%
X139785000Y-58225000D03*
D13*
%TO.P,U3,2,TR*%
%TO.N,Net-(D8-K)*%
X142325000Y-58225000D03*
%TO.P,U3,3,Q*%
%TO.N,Net-(U3-Q)*%
X144865000Y-58225000D03*
%TO.P,U3,4,R*%
%TO.N,Net-(U2-Q)*%
X147405000Y-58225000D03*
%TO.P,U3,5,CV*%
%TO.N,Net-(U3-CV)*%
X147405000Y-50605000D03*
%TO.P,U3,6,THR*%
%TO.N,Net-(D8-K)*%
X144865000Y-50605000D03*
%TO.P,U3,7,DIS*%
%TO.N,Net-(U3-DIS)*%
X142325000Y-50605000D03*
%TO.P,U3,8,VCC*%
%TO.N,+12*%
X139785000Y-50605000D03*
%TD*%
D28*
%TO.P,D5,1,K*%
%TO.N,Net-(D5-K)*%
X178595000Y-45120000D03*
D12*
%TO.P,D5,2,A*%
%TO.N,+12*%
X178595000Y-47660000D03*
%TD*%
D29*
%TO.P,Q2,1,C*%
%TO.N,Net-(D13-K)*%
X176733888Y-152139000D03*
D30*
%TO.P,Q2,2,B*%
%TO.N,Net-(Q2-B)*%
X175463888Y-152139000D03*
%TO.P,Q2,3,E*%
%TO.N,Net-(D13-A)*%
X174193888Y-152139000D03*
%TD*%
D20*
%TO.P,C1,1*%
%TO.N,Net-(D1-K)*%
X211900000Y-88000000D03*
D13*
%TO.P,C1,2*%
%TO.N,GND*%
X209400000Y-88000000D03*
%TD*%
D20*
%TO.P,D11,1,K*%
%TO.N,Net-(D11-K)*%
X151400000Y-150240000D03*
D14*
%TO.P,D11,2,A*%
%TO.N,GND*%
X151400000Y-160400000D03*
%TD*%
D20*
%TO.P,D9,1,K*%
%TO.N,Net-(D9-K)*%
X145595000Y-37340000D03*
D14*
%TO.P,D9,2,A*%
%TO.N,Net-(D8-K)*%
X145595000Y-47500000D03*
%TD*%
D13*
%TO.P,R1,1*%
%TO.N,Net-(Q1-E)*%
X168595000Y-40310000D03*
D14*
%TO.P,R1,2*%
%TO.N,ground*%
X168595000Y-47930000D03*
%TD*%
D20*
%TO.P,C3,1*%
%TO.N,Net-(U2-THR)*%
X159800113Y-52120000D03*
D13*
%TO.P,C3,2*%
%TO.N,ground*%
X157300113Y-52120000D03*
%TD*%
D21*
%TO.P,D4,1,K*%
%TO.N,Net-(D2-A)*%
X216900000Y-113000000D03*
D22*
%TO.P,D4,2,A*%
%TO.N,GND*%
X216900000Y-102840000D03*
%TD*%
D23*
%TO.P,Q3,1,C*%
%TO.N,Net-(D14-A)*%
X208083888Y-130399000D03*
D24*
%TO.P,Q3,2,B*%
%TO.N,Net-(Q3-B)*%
X208083888Y-129129000D03*
%TO.P,Q3,3,E*%
%TO.N,Net-(Q3-E)*%
X208083888Y-127859000D03*
%TD*%
D20*
%TO.P,D7,1,K*%
%TO.N,Net-(D6-A)*%
X170595000Y-51620000D03*
D14*
%TO.P,D7,2,A*%
%TO.N,Net-(D7-A)*%
X170595000Y-61780000D03*
%TD*%
D13*
%TO.P,R4,1*%
%TO.N,Net-(D6-K)*%
X153095000Y-59120000D03*
D14*
%TO.P,R4,2*%
%TO.N,Net-(U2-DIS)*%
X153095000Y-51500000D03*
%TD*%
D13*
%TO.P,R16,1*%
%TO.N,Net-(U7-e)*%
X184900000Y-113920000D03*
D14*
%TO.P,R16,2*%
%TO.N,Net-(U8-E)*%
X184900000Y-106300000D03*
%TD*%
D27*
%TO.P,U6,1,GND*%
%TO.N,GND*%
X152865000Y-126610000D03*
D13*
%TO.P,U6,2,TR*%
%TO.N,Net-(D12-K)*%
X152865000Y-129150000D03*
%TO.P,U6,3,Q*%
%TO.N,Net-(U6-Q)*%
X152865000Y-131690000D03*
%TO.P,U6,4,R*%
%TO.N,Net-(SW1A-C)*%
X152865000Y-134230000D03*
%TO.P,U6,5,CV*%
%TO.N,Net-(D11-K)*%
X160485000Y-134230000D03*
%TO.P,U6,6,THR*%
%TO.N,Net-(U6-THR)*%
X160485000Y-131690000D03*
%TO.P,U6,7,DIS*%
%TO.N,unconnected-(U6-DIS-Pad7)*%
X160485000Y-129150000D03*
%TO.P,U6,8,VCC*%
%TO.N,+12V*%
X160485000Y-126610000D03*
%TD*%
D31*
%TO.P,C11,1*%
%TO.N,Net-(U2-CV)*%
X164095000Y-37120000D03*
D32*
%TO.P,C11,2*%
%TO.N,ground*%
X164095000Y-35620000D03*
%TD*%
D13*
%TO.P,R3,1*%
%TO.N,+12*%
X174595000Y-54310000D03*
D14*
%TO.P,R3,2*%
%TO.N,Net-(D7-A)*%
X174595000Y-61930000D03*
%TD*%
D31*
%TO.P,C6,1*%
%TO.N,Net-(U3-CV)*%
X150095000Y-46920000D03*
D32*
%TO.P,C6,2*%
%TO.N,ground*%
X150095000Y-45420000D03*
%TD*%
D13*
%TO.P,R15,1*%
%TO.N,Net-(U7-f)*%
X193900000Y-113920000D03*
D14*
%TO.P,R15,2*%
%TO.N,Net-(U8-F)*%
X193900000Y-106300000D03*
%TD*%
D31*
%TO.P,C4,1*%
%TO.N,Net-(D8-K)*%
X150095000Y-40420000D03*
D32*
%TO.P,C4,2*%
%TO.N,ground*%
X150095000Y-41920000D03*
%TD*%
D33*
%TO.P,J1,1,Pin_1*%
%TO.N,Net-(J1-Pin_1)*%
X137400000Y-146420000D03*
D34*
%TO.P,J1,2,Pin_2*%
%TO.N,Net-(J1-Pin_2)*%
X137400000Y-143920000D03*
%TD*%
D13*
%TO.P,R9,1*%
%TO.N,+12V*%
X213900000Y-157920000D03*
D14*
%TO.P,R9,2*%
%TO.N,Net-(D10-K)*%
X206280000Y-157920000D03*
%TD*%
D35*
%TO.P,J2,1,Pin_1*%
%TO.N,+12*%
X155595000Y-29620000D03*
D36*
%TO.P,J2,2,Pin_2*%
%TO.N,ground*%
X153095000Y-29620000D03*
%TD*%
D37*
%TO.P,J3,1,Pin_1*%
%TO.N,GND*%
X217900000Y-78420000D03*
D36*
%TO.P,J3,2,Pin_2*%
%TO.N,+12V*%
X220400000Y-78420000D03*
%TD*%
D13*
%TO.P,R18,1*%
%TO.N,Net-(U7-c)*%
X178900000Y-113920000D03*
D14*
%TO.P,R18,2*%
%TO.N,Net-(U8-C)*%
X178900000Y-106300000D03*
%TD*%
D13*
%TO.P,R17,1*%
%TO.N,Net-(U7-d)*%
X190900000Y-113920000D03*
D14*
%TO.P,R17,2*%
%TO.N,Net-(U8-D)*%
X190900000Y-106300000D03*
%TD*%
D38*
%TO.P,LS1,N*%
%TO.N,Net-(D14-A)*%
X221900000Y-128739000D03*
%TO.P,LS1,P*%
%TO.N,Net-(D14-K)*%
X221900000Y-121139000D03*
%TD*%
D20*
%TO.P,D12,1,K*%
%TO.N,Net-(D12-K)*%
X154900000Y-150340000D03*
D14*
%TO.P,D12,2,A*%
%TO.N,GND*%
X154900000Y-160500000D03*
%TD*%
D13*
%TO.P,R20,1*%
%TO.N,Net-(U7-a)*%
X187900000Y-113920000D03*
D14*
%TO.P,R20,2*%
%TO.N,Net-(U8-A)*%
X187900000Y-106300000D03*
%TD*%
D39*
%TO.P,RV1,1,1*%
%TO.N,Net-(D6-A)*%
X167635000Y-51890000D03*
%TO.P,RV1,2,2*%
X165095000Y-54430000D03*
%TO.P,RV1,3,3*%
%TO.N,Net-(U2-THR)*%
X162555000Y-51890000D03*
%TD*%
D20*
%TO.P,D10,1,K*%
%TO.N,Net-(D10-K)*%
X193930000Y-160420000D03*
D14*
%TO.P,D10,2,A*%
%TO.N,GND*%
X204090000Y-160420000D03*
%TD*%
D23*
%TO.P,Q1,1,C*%
%TO.N,Net-(D5-K)*%
X168595000Y-34620000D03*
D24*
%TO.P,Q1,2,B*%
%TO.N,Net-(Q1-B)*%
X168595000Y-35890000D03*
%TO.P,Q1,3,E*%
%TO.N,Net-(Q1-E)*%
X168595000Y-37160000D03*
%TD*%
D13*
%TO.P,R19,1*%
%TO.N,Net-(U7-b)*%
X181900000Y-113920000D03*
D14*
%TO.P,R19,2*%
%TO.N,Net-(U8-B)*%
X181900000Y-106300000D03*
%TD*%
D25*
%TO.P,H3,1*%
%TO.N,N/C*%
X128970000Y-73320000D03*
X129519175Y-71994175D03*
X129519175Y-74645825D03*
X130845000Y-71445000D03*
D26*
X130845000Y-73320000D03*
D25*
X130845000Y-75195000D03*
X132170825Y-71994175D03*
X132170825Y-74645825D03*
X132720000Y-73320000D03*
%TD*%
D20*
%TO.P,D6,1,K*%
%TO.N,Net-(D6-K)*%
X156595000Y-58620000D03*
D14*
%TO.P,D6,2,A*%
%TO.N,Net-(D6-A)*%
X166755000Y-58620000D03*
%TD*%
D13*
%TO.P,R6,1*%
%TO.N,Net-(D8-A)*%
X139595000Y-39800000D03*
D14*
%TO.P,R6,2*%
%TO.N,+12*%
X139595000Y-47420000D03*
%TD*%
D13*
%TO.P,R7,1*%
%TO.N,Net-(U14-Vs)*%
X202670000Y-170730000D03*
D14*
%TO.P,R7,2*%
%TO.N,Net-(D10-K)*%
X202670000Y-163110000D03*
%TD*%
D20*
%TO.P,C7,1*%
%TO.N,Net-(U6-THR)*%
X168170000Y-135214888D03*
D13*
%TO.P,C7,2*%
%TO.N,GND*%
X168170000Y-137714888D03*
%TD*%
D25*
%TO.P,H2,1*%
%TO.N,N/C*%
X129644175Y-62645825D03*
X130193350Y-61320000D03*
X130193350Y-63971650D03*
X131519175Y-60770825D03*
D26*
X131519175Y-62645825D03*
D25*
X131519175Y-64520825D03*
X132845000Y-61320000D03*
X132845000Y-63971650D03*
X133394175Y-62645825D03*
%TD*%
D13*
%TO.P,R26,1*%
%TO.N,Net-(Q3-B)*%
X207783888Y-134319000D03*
D14*
%TO.P,R26,2*%
%TO.N,Net-(R24-Pad1)*%
X207783888Y-141939000D03*
%TD*%
D18*
%TO.P,SW1,1,C*%
%TO.N,Net-(SW1A-C)*%
X157650000Y-167070000D03*
D19*
%TO.P,SW1,2,D*%
%TO.N,GND*%
X157650000Y-162570000D03*
%TO.P,SW1,3*%
%TO.N,N/C*%
X151150000Y-167070000D03*
%TO.P,SW1,4*%
X151150000Y-162570000D03*
%TD*%
D21*
%TO.P,D3,1,K*%
%TO.N,Net-(D1-A)*%
X216900000Y-87920000D03*
D22*
%TO.P,D3,2,A*%
%TO.N,GND*%
X216900000Y-98080000D03*
%TD*%
D13*
%TO.P,R2,1*%
%TO.N,Net-(U3-Q)*%
X161785000Y-31120000D03*
D14*
%TO.P,R2,2*%
%TO.N,Net-(Q1-B)*%
X169405000Y-31120000D03*
%TD*%
D13*
%TO.P,R27,1*%
%TO.N,+12V*%
X207283888Y-116819000D03*
D14*
%TO.P,R27,2*%
%TO.N,Net-(D14-K)*%
X207283888Y-124439000D03*
%TD*%
D21*
%TO.P,D1,1,K*%
%TO.N,Net-(D1-K)*%
X223400000Y-98080000D03*
D22*
%TO.P,D1,2,A*%
%TO.N,Net-(D1-A)*%
X223400000Y-87920000D03*
%TD*%
D40*
%TO.N,Net-(D1-K)*%
X223400000Y-98080000D02*
X223400000Y-102920000D01*
X219820000Y-94500000D02*
X211320000Y-94500000D01*
X211900000Y-88000000D02*
X211900000Y-93920000D01*
X211320000Y-94500000D02*
X209400000Y-96420000D01*
X223400000Y-98080000D02*
X219820000Y-94500000D01*
X211900000Y-93920000D02*
X209400000Y-96420000D01*
%TO.N,Net-(D1-A)*%
X223400000Y-87920000D02*
X216900000Y-87920000D01*
X223400000Y-78147208D02*
X223400000Y-87920000D01*
X221221792Y-75969000D02*
X223400000Y-78147208D01*
X165900000Y-108320000D02*
X171000000Y-103220000D01*
X171000000Y-103220000D02*
X171000000Y-86547208D01*
X214678208Y-76869000D02*
X215578208Y-75969000D01*
X171000000Y-86547208D02*
X180678208Y-76869000D01*
X215578208Y-75969000D02*
X221221792Y-75969000D01*
X180678208Y-76869000D02*
X214678208Y-76869000D01*
%TO.N,Net-(D2-A)*%
X225351000Y-77371000D02*
X222900000Y-74920000D01*
X180900000Y-74920000D02*
X167951000Y-87869000D01*
X225351000Y-111129000D02*
X225351000Y-77371000D01*
X225351000Y-77371000D02*
X223150000Y-75170000D01*
X216980000Y-113080000D02*
X216900000Y-113000000D01*
X222900000Y-74920000D02*
X180900000Y-74920000D01*
X223400000Y-113080000D02*
X225351000Y-111129000D01*
X167951000Y-87869000D02*
X167951000Y-96109000D01*
X225351000Y-77371000D02*
X224900000Y-76920000D01*
X223400000Y-113080000D02*
X216980000Y-113080000D01*
X167951000Y-96109000D02*
X165900000Y-98160000D01*
%TO.N,GND*%
X180591000Y-127581000D02*
X179240000Y-126230000D01*
X210751000Y-86649000D02*
X209400000Y-88000000D01*
X201399000Y-146139000D02*
X201399000Y-139802777D01*
X202900000Y-117810000D02*
X194480000Y-126230000D01*
X172900000Y-87920000D02*
X172900000Y-102920000D01*
X150013001Y-134561396D02*
X153308605Y-137857000D01*
D41*
X185819000Y-152809000D02*
X185019001Y-153608999D01*
D40*
X193129000Y-127581000D02*
X180591000Y-127581000D01*
X155830395Y-137857000D02*
X157151000Y-139177605D01*
X209400000Y-88000000D02*
X207849000Y-89551000D01*
X168170000Y-137714888D02*
X162059285Y-137714888D01*
X176570000Y-123560000D02*
X179240000Y-126230000D01*
D41*
X187970000Y-148110818D02*
X186299182Y-146440000D01*
X207631000Y-156651000D02*
X206900000Y-155920000D01*
D40*
X183994981Y-166140603D02*
X191120603Y-166140603D01*
D41*
X188345000Y-129820000D02*
X184345000Y-129820000D01*
X180420682Y-87819000D02*
X181400000Y-88798318D01*
D40*
X170566126Y-168555874D02*
X170566126Y-166365523D01*
D41*
X206900000Y-155920000D02*
X194900000Y-155920000D01*
X177501000Y-87819000D02*
X180420682Y-87819000D01*
D40*
X208885500Y-98960000D02*
X209400000Y-98960000D01*
X153400000Y-146420000D02*
X153400000Y-158500000D01*
X211017349Y-165920000D02*
X205517349Y-160420000D01*
X169269603Y-165069000D02*
X168150397Y-165069000D01*
X218849000Y-76869000D02*
X215951000Y-76869000D01*
X181679397Y-118610000D02*
X181780000Y-118610000D01*
D41*
X177345000Y-160820000D02*
X182845000Y-160820000D01*
X165445000Y-151849294D02*
X165445000Y-151657259D01*
D40*
X153665000Y-126610000D02*
X152865000Y-126610000D01*
X168320603Y-168720000D02*
X181415584Y-168720000D01*
X157151000Y-142669000D02*
X153400000Y-146420000D01*
X177400000Y-114330603D02*
X181679397Y-118610000D01*
D41*
X185300818Y-146440000D02*
X182768000Y-143907182D01*
D40*
X181415584Y-168720000D02*
X183994981Y-166140603D01*
D41*
X193900000Y-150554200D02*
X195436200Y-149018000D01*
D40*
X208440000Y-98000000D02*
X209400000Y-98960000D01*
X220400000Y-78420000D02*
X218849000Y-76869000D01*
X152865000Y-126610000D02*
X150013001Y-129461999D01*
D41*
X177085000Y-139580000D02*
X177444888Y-139220112D01*
X165445000Y-151657259D02*
X165363888Y-151576146D01*
D40*
X177400000Y-108931370D02*
X177400000Y-114330603D01*
X153308605Y-137857000D02*
X155830395Y-137857000D01*
X211900000Y-111294888D02*
X211900000Y-107840000D01*
X154650000Y-127595000D02*
X153665000Y-126610000D01*
D41*
X195436200Y-149018000D02*
X198520000Y-149018000D01*
X172845000Y-124326522D02*
X173611522Y-123560000D01*
D40*
X182400000Y-78420000D02*
X172900000Y-87920000D01*
X164400000Y-118420000D02*
X160400000Y-122420000D01*
D41*
X182768000Y-143907182D02*
X182768000Y-135897000D01*
D40*
X145900000Y-138920000D02*
X148400000Y-141420000D01*
X195142500Y-91610000D02*
X191900000Y-88367500D01*
X175900000Y-106300000D02*
X175900000Y-107431370D01*
D41*
X177444888Y-136720112D02*
X177444888Y-134419888D01*
D40*
X216020000Y-98960000D02*
X216900000Y-98080000D01*
X207849000Y-89551000D02*
X207849000Y-97923500D01*
X191900000Y-85110000D02*
X192731000Y-84279000D01*
D41*
X188345000Y-134320000D02*
X189134888Y-133530112D01*
X182768000Y-135897000D02*
X184345000Y-134320000D01*
D40*
X151400000Y-160500000D02*
X154900000Y-160500000D01*
X195879000Y-127629000D02*
X194480000Y-126230000D01*
X157151000Y-139177605D02*
X157151000Y-142669000D01*
X172900000Y-102920000D02*
X170900000Y-104920000D01*
X175900000Y-107431370D02*
X177400000Y-108931370D01*
D41*
X177444888Y-136720112D02*
X184345000Y-129820000D01*
D40*
X210210000Y-175105000D02*
X210210000Y-166727349D01*
D41*
X181400000Y-90112500D02*
X179902500Y-91610000D01*
X165363888Y-148121234D02*
X173905122Y-139580000D01*
D40*
X166320603Y-170720000D02*
X168320603Y-168720000D01*
X164400000Y-117420000D02*
X164400000Y-118420000D01*
X194152888Y-132556665D02*
X194152888Y-126557112D01*
X160400000Y-122420000D02*
X148400000Y-122420000D01*
X148400000Y-141420000D02*
X148400000Y-165947478D01*
X192731000Y-84279000D02*
X196074895Y-84279000D01*
D41*
X187970000Y-155695000D02*
X187970000Y-148110818D01*
D40*
X154650000Y-130305603D02*
X154650000Y-127595000D01*
X209400000Y-98960000D02*
X216020000Y-98960000D01*
D41*
X165363888Y-151576146D02*
X165363888Y-148121234D01*
X189134888Y-130609888D02*
X188345000Y-129820000D01*
D40*
X153400000Y-158500000D02*
X151400000Y-160500000D01*
D41*
X186299182Y-146440000D02*
X185300818Y-146440000D01*
D40*
X205517349Y-160420000D02*
X204090000Y-160420000D01*
D41*
X185019001Y-153608999D02*
X167204705Y-153608999D01*
D40*
X194480000Y-126230000D02*
X193129000Y-127581000D01*
X196074895Y-84279000D02*
X202900000Y-91104105D01*
X202723888Y-127629000D02*
X195879000Y-127629000D01*
X202900000Y-91104105D02*
X202900000Y-117810000D01*
X207395000Y-177920000D02*
X210210000Y-175105000D01*
X181780000Y-123690000D02*
X179240000Y-126230000D01*
D41*
X177444888Y-134419888D02*
X172845000Y-129820000D01*
X194900000Y-155920000D02*
X193900000Y-154920000D01*
X207631000Y-158479603D02*
X207631000Y-156651000D01*
D40*
X157650000Y-162359000D02*
X155791000Y-160500000D01*
X207849000Y-97923500D02*
X208885500Y-98960000D01*
X170566126Y-166365523D02*
X169269603Y-165069000D01*
X156350000Y-168820000D02*
X156350000Y-163659000D01*
X168150397Y-165069000D02*
X164399397Y-168820000D01*
X181780000Y-118610000D02*
X181780000Y-123690000D01*
D41*
X205690603Y-160420000D02*
X207631000Y-158479603D01*
X198520000Y-149018000D02*
X201399000Y-146139000D01*
D40*
X149850000Y-167397478D02*
X149850000Y-167608478D01*
X201399000Y-139802777D02*
X194152888Y-132556665D01*
X216900000Y-98080000D02*
X216900000Y-102840000D01*
X220400000Y-78420000D02*
X212171000Y-86649000D01*
X173611522Y-123560000D02*
X176570000Y-123560000D01*
X191120603Y-166140603D02*
X202900000Y-177920000D01*
D41*
X167204705Y-153608999D02*
X165445000Y-151849294D01*
D40*
X211900000Y-107840000D02*
X216900000Y-102840000D01*
D41*
X175900000Y-89420000D02*
X177501000Y-87819000D01*
D40*
X212171000Y-86649000D02*
X210751000Y-86649000D01*
X156350000Y-163659000D02*
X157650000Y-162359000D01*
X162059285Y-137714888D02*
X154650000Y-130305603D01*
X164399397Y-168820000D02*
X156350000Y-168820000D01*
X155791000Y-160500000D02*
X154900000Y-160500000D01*
D41*
X181400000Y-88798318D02*
X181400000Y-90112500D01*
D40*
X202900000Y-177920000D02*
X207395000Y-177920000D01*
D41*
X193900000Y-154920000D02*
X193900000Y-150554200D01*
D40*
X191900000Y-88367500D02*
X191900000Y-85110000D01*
D41*
X172845000Y-129820000D02*
X172845000Y-124326522D01*
D40*
X145900000Y-124920000D02*
X145900000Y-138920000D01*
D41*
X173905122Y-139580000D02*
X177085000Y-139580000D01*
X182845000Y-160820000D02*
X187970000Y-155695000D01*
D40*
X149850000Y-167608478D02*
X152961522Y-170720000D01*
D41*
X189134888Y-133530112D02*
X189134888Y-130609888D01*
D40*
X150013001Y-129461999D02*
X150013001Y-134561396D01*
D41*
X175900000Y-106300000D02*
X175900000Y-89420000D01*
D40*
X148400000Y-122420000D02*
X145900000Y-124920000D01*
X170900000Y-104920000D02*
X170900000Y-110920000D01*
X170900000Y-110920000D02*
X164400000Y-117420000D01*
X215951000Y-76869000D02*
X214400000Y-78420000D01*
X210210000Y-166727349D02*
X211017349Y-165920000D01*
X214400000Y-78420000D02*
X182400000Y-78420000D01*
X148400000Y-165947478D02*
X149850000Y-167397478D01*
D41*
X184345000Y-134320000D02*
X188345000Y-134320000D01*
X177444888Y-139220112D02*
X177444888Y-136720112D01*
D40*
X194152888Y-126557112D02*
X194480000Y-126230000D01*
D41*
X204090000Y-160420000D02*
X205690603Y-160420000D01*
D40*
X152961522Y-170720000D02*
X166320603Y-170720000D01*
D41*
%TO.N,+12V*%
X171846414Y-161820000D02*
X165845000Y-161820000D01*
D40*
X204750000Y-101500000D02*
X204670000Y-101420000D01*
X204670000Y-114205112D02*
X207283888Y-116819000D01*
D41*
X171845000Y-138820000D02*
X171845000Y-137320000D01*
D40*
X221069000Y-116819000D02*
X226170000Y-121920000D01*
X168690000Y-121920000D02*
X166170000Y-121920000D01*
X226170000Y-127420000D02*
X213900000Y-139690000D01*
D41*
X172231000Y-130901818D02*
X170649182Y-129320000D01*
D40*
X167650000Y-124860000D02*
X165900000Y-126610000D01*
X155949478Y-169820000D02*
X149850000Y-163720522D01*
X149850000Y-163720522D02*
X149850000Y-145160000D01*
X170400000Y-122110000D02*
X167650000Y-124860000D01*
D41*
X171845000Y-137320000D02*
X172231000Y-136934000D01*
X195979000Y-137569000D02*
X192888216Y-137569000D01*
D40*
X209400000Y-111294888D02*
X209400000Y-101500000D01*
X165900000Y-126610000D02*
X160485000Y-126610000D01*
X151900000Y-140110000D02*
X152699999Y-140909999D01*
X172000000Y-118610000D02*
X168690000Y-121920000D01*
X152699999Y-140909999D02*
X154100001Y-140909999D01*
X176700000Y-118610000D02*
X172000000Y-118610000D01*
X174670000Y-102920000D02*
X174670000Y-87422792D01*
X166170000Y-121920000D02*
X166170000Y-118420000D01*
X157495000Y-123620000D02*
X160485000Y-126610000D01*
X173170000Y-111420000D02*
X173170000Y-104420000D01*
X173170000Y-104420000D02*
X174670000Y-102920000D01*
D41*
X165845000Y-161820000D02*
X163762888Y-159737888D01*
D40*
X209400000Y-101500000D02*
X206949000Y-99049000D01*
X149850000Y-145160000D02*
X154100001Y-140909999D01*
X206949000Y-99049000D02*
X206949000Y-88521000D01*
D41*
X167650000Y-127123586D02*
X167650000Y-124860000D01*
D40*
X149154416Y-123620000D02*
X157495000Y-123620000D01*
X226170000Y-121920000D02*
X226170000Y-127420000D01*
D41*
X189571000Y-140886216D02*
X189571000Y-156594000D01*
D40*
X207283888Y-116819000D02*
X221069000Y-116819000D01*
X209400000Y-101500000D02*
X204750000Y-101500000D01*
X176700000Y-119741370D02*
X174331370Y-122110000D01*
D41*
X163762888Y-146902112D02*
X171845000Y-138820000D01*
D40*
X151900000Y-140110000D02*
X147600000Y-135810000D01*
X174331370Y-122110000D02*
X170400000Y-122110000D01*
D41*
X163762888Y-159737888D02*
X163762888Y-146902112D01*
X182845000Y-163320000D02*
X173346414Y-163320000D01*
D40*
X147600000Y-135810000D02*
X147600000Y-125174416D01*
D41*
X172231000Y-136934000D02*
X172231000Y-130901818D01*
X192888216Y-137569000D02*
X189571000Y-140886216D01*
D40*
X206949000Y-88521000D02*
X217050000Y-78420000D01*
D41*
X170649182Y-129320000D02*
X169846414Y-129320000D01*
D40*
X168710000Y-166420000D02*
X165310000Y-169820000D01*
X178713792Y-83379000D02*
X196447687Y-83379000D01*
D41*
X169846414Y-129320000D02*
X167650000Y-127123586D01*
D40*
X176700000Y-118610000D02*
X176700000Y-119741370D01*
X204670000Y-91601313D02*
X204670000Y-101420000D01*
D41*
X173346414Y-163320000D02*
X171846414Y-161820000D01*
D40*
X196447687Y-83379000D02*
X204670000Y-91601313D01*
X217050000Y-78420000D02*
X217900000Y-78420000D01*
X166170000Y-118420000D02*
X173170000Y-111420000D01*
X213900000Y-139690000D02*
X213900000Y-157920000D01*
X204670000Y-101420000D02*
X204670000Y-114205112D01*
X174670000Y-87422792D02*
X178713792Y-83379000D01*
X165310000Y-169820000D02*
X155949478Y-169820000D01*
X147600000Y-125174416D02*
X149154416Y-123620000D01*
D41*
X189571000Y-156594000D02*
X182845000Y-163320000D01*
D40*
X154100001Y-140909999D02*
X154900000Y-140110000D01*
%TO.N,Net-(D5-K)*%
X178595000Y-45120000D02*
X178595000Y-43520000D01*
X178595000Y-43520000D02*
X169695000Y-34620000D01*
X169695000Y-34620000D02*
X168595000Y-34620000D01*
%TO.N,Net-(D10-K)*%
X202670000Y-159929397D02*
X204679397Y-157920000D01*
X198170000Y-163110000D02*
X196620000Y-163110000D01*
X202670000Y-163110000D02*
X202670000Y-159929397D01*
X196620000Y-163110000D02*
X193930000Y-160420000D01*
X198170000Y-163110000D02*
X202670000Y-163110000D01*
X204679397Y-157920000D02*
X206280000Y-157920000D01*
%TO.N,Net-(D11-K)*%
X151900000Y-147730000D02*
X151900000Y-146598630D01*
X151900000Y-147730000D02*
X151900000Y-149840000D01*
X156251000Y-139550397D02*
X155459603Y-138759000D01*
X158170000Y-125920000D02*
X158170000Y-131915000D01*
X151900000Y-149840000D02*
X151400000Y-150340000D01*
X148500000Y-134324015D02*
X148500000Y-125547208D01*
X148500000Y-125547208D02*
X149527208Y-124520000D01*
X149527208Y-124520000D02*
X156770000Y-124520000D01*
X151310596Y-137134611D02*
X148500000Y-134324015D01*
D42*
X151400000Y-150340000D02*
X151199000Y-150340000D01*
D40*
X156770000Y-124520000D02*
X158170000Y-125920000D01*
X152934985Y-138759000D02*
X150747992Y-136572007D01*
X155459603Y-138759000D02*
X152934985Y-138759000D01*
X151900000Y-146598630D02*
X156251000Y-142247630D01*
X158170000Y-131915000D02*
X160485000Y-134230000D01*
X156251000Y-142247630D02*
X156251000Y-139550397D01*
%TO.N,Net-(D12-K)*%
X158051000Y-138804813D02*
X154827187Y-135581000D01*
X154900000Y-147730000D02*
X158051000Y-144579000D01*
X154827187Y-135581000D02*
X152305397Y-135581000D01*
X154900000Y-150340000D02*
X154900000Y-147730000D01*
X150914000Y-129969630D02*
X151733630Y-129150000D01*
X158051000Y-144579000D02*
X158051000Y-138804813D01*
X155090000Y-150150000D02*
X154900000Y-150340000D01*
X151733630Y-129150000D02*
X152865000Y-129150000D01*
X150914000Y-134189603D02*
X150914000Y-129969630D01*
X152305397Y-135581000D02*
X150914000Y-134189603D01*
%TO.N,Net-(D13-K)*%
X178823888Y-150269000D02*
X185819000Y-150269000D01*
X179193888Y-136839741D02*
X179193888Y-143643888D01*
X176773888Y-148639000D02*
X177193888Y-148639000D01*
X176733888Y-152139000D02*
X176733888Y-148679000D01*
X187883888Y-131139000D02*
X184894629Y-131139000D01*
X177193888Y-148639000D02*
X178823888Y-150269000D01*
X176733888Y-148679000D02*
X176773888Y-148639000D01*
X179193888Y-143643888D02*
X185819000Y-150269000D01*
X184894629Y-131139000D02*
X179193888Y-136839741D01*
%TO.N,Net-(D13-A)*%
X174193888Y-152139000D02*
X170113888Y-152139000D01*
X170113888Y-152139000D02*
X166613888Y-148639000D01*
X166693888Y-148719000D02*
X166613888Y-148639000D01*
X166693888Y-151329000D02*
X166693888Y-148719000D01*
%TO.N,Net-(D14-K)*%
X211173888Y-120549000D02*
X207283888Y-124439000D01*
X221900000Y-121139000D02*
X213373888Y-121139000D01*
X213373888Y-121139000D02*
X212783888Y-120549000D01*
X220693888Y-121139000D02*
X220681000Y-121139000D01*
X220681000Y-121139000D02*
X221900000Y-121139000D01*
X212783888Y-120549000D02*
X211173888Y-120549000D01*
%TO.N,Net-(D14-A)*%
X208393888Y-130709000D02*
X212783888Y-130709000D01*
X209134888Y-134878603D02*
X209134888Y-131450000D01*
X208083888Y-130399000D02*
X208393888Y-130709000D01*
X202723888Y-131169603D02*
X207224285Y-135670000D01*
X209134888Y-131450000D02*
X208083888Y-130399000D01*
X208343491Y-135670000D02*
X209134888Y-134878603D01*
X214753888Y-128739000D02*
X221900000Y-128739000D01*
X202723888Y-130169000D02*
X202723888Y-131169603D01*
X212783888Y-130709000D02*
X214753888Y-128739000D01*
X207224285Y-135670000D02*
X208343491Y-135670000D01*
%TO.N,Net-(U2-Q)*%
X164526000Y-52775370D02*
X164526000Y-50086000D01*
X164526000Y-50086000D02*
X162365000Y-47925000D01*
X147405000Y-58225000D02*
X151255000Y-54375000D01*
X162926370Y-54375000D02*
X164526000Y-52775370D01*
X151255000Y-54375000D02*
X162926370Y-54375000D01*
%TO.N,Net-(U2-CV)*%
X164905000Y-37930000D02*
X164095000Y-37120000D01*
X164905000Y-40305000D02*
X164905000Y-37930000D01*
%TO.N,Net-(U2-THR)*%
X159825000Y-42845000D02*
X162365000Y-40305000D01*
X161726786Y-52718214D02*
X162555000Y-51890000D01*
X159800113Y-52120000D02*
X160398327Y-52718214D01*
X159800113Y-47949887D02*
X159825000Y-47925000D01*
X159800113Y-52120000D02*
X159800113Y-47949887D01*
X159825000Y-47925000D02*
X159825000Y-42845000D01*
X160398327Y-52718214D02*
X161726786Y-52718214D01*
%TO.N,Net-(U2-DIS)*%
X153095000Y-51500000D02*
X153095000Y-47035000D01*
X153095000Y-47035000D02*
X159825000Y-40305000D01*
%TO.N,Net-(D8-K)*%
X138434000Y-57036000D02*
X144865000Y-50605000D01*
X142325000Y-58225000D02*
X140974000Y-59576000D01*
X145595000Y-47500000D02*
X145595000Y-43620000D01*
X148795000Y-40420000D02*
X150095000Y-40420000D01*
X138896288Y-59576000D02*
X138434000Y-59113712D01*
X138434000Y-59113712D02*
X138434000Y-57036000D01*
X145595000Y-43620000D02*
X148795000Y-40420000D01*
X150095000Y-40420000D02*
X150095000Y-35500000D01*
X150095000Y-35500000D02*
X151175000Y-34420000D01*
X140974000Y-59576000D02*
X138896288Y-59576000D01*
X144865000Y-48230000D02*
X145595000Y-47500000D01*
X144865000Y-50605000D02*
X144865000Y-48230000D01*
%TO.N,Net-(U3-CV)*%
X150095000Y-47915000D02*
X147405000Y-50605000D01*
X150095000Y-46920000D02*
X150095000Y-47915000D01*
%TO.N,Net-(U3-Q)*%
X152147000Y-49194397D02*
X152147000Y-41942792D01*
X144865000Y-56476397D02*
X152147000Y-49194397D01*
X155546000Y-37359000D02*
X161785000Y-31120000D01*
X155546000Y-38543792D02*
X155546000Y-37359000D01*
X144865000Y-58225000D02*
X144865000Y-56476397D01*
X152147000Y-41942792D02*
X155546000Y-38543792D01*
%TO.N,Net-(U3-DIS)*%
X142325000Y-47690000D02*
X142595000Y-47420000D01*
X142325000Y-50605000D02*
X142325000Y-47690000D01*
%TO.N,output signal*%
X192470000Y-165030000D02*
X198170000Y-170730000D01*
X205130000Y-175105000D02*
X202545000Y-175105000D01*
X195979000Y-145189000D02*
X192945000Y-148223000D01*
X202545000Y-175105000D02*
X198170000Y-170730000D01*
X192470000Y-157871955D02*
X192470000Y-165030000D01*
X192945000Y-157396955D02*
X192470000Y-157871955D01*
X192945000Y-148223000D02*
X192945000Y-157396955D01*
%TO.N,Net-(U6-Q)*%
X165789837Y-164169000D02*
X161645000Y-160024163D01*
X195979000Y-140109000D02*
X194847630Y-140109000D01*
X190549163Y-159020000D02*
X190049163Y-159020000D01*
X184049163Y-165020000D02*
X170493395Y-165020000D01*
X160553000Y-139378000D02*
X160553000Y-137800208D01*
X161645000Y-146615838D02*
X162245000Y-146015838D01*
X170493395Y-165020000D02*
X169642395Y-164169000D01*
X191545000Y-158024163D02*
X190549163Y-159020000D01*
X190049163Y-159020000D02*
X184049163Y-165020000D01*
X162245000Y-141070000D02*
X160553000Y-139378000D01*
X169642395Y-164169000D02*
X165789837Y-164169000D01*
X191545000Y-143411630D02*
X191545000Y-158024163D01*
X161645000Y-160024163D02*
X161645000Y-146615838D01*
X154442792Y-131690000D02*
X152865000Y-131690000D01*
X162245000Y-146015838D02*
X162245000Y-141070000D01*
X160553000Y-137800208D02*
X154442792Y-131690000D01*
X194847630Y-140109000D02*
X191545000Y-143411630D01*
%TO.N,Net-(U6-THR)*%
X164375112Y-131420000D02*
X168170000Y-135214888D01*
X160755000Y-131420000D02*
X160485000Y-131690000D01*
X163360000Y-131420000D02*
X160755000Y-131420000D01*
X163360000Y-131420000D02*
X164375112Y-131420000D01*
%TO.N,Net-(SW1A-C)*%
X161090000Y-166420000D02*
X158951000Y-164281000D01*
X160840000Y-166859000D02*
X161090000Y-166609000D01*
X157650000Y-166859000D02*
X160840000Y-166859000D01*
X158951000Y-164281000D02*
X158951000Y-138432021D01*
X154748979Y-134230000D02*
X152865000Y-134230000D01*
X158951000Y-138432021D02*
X154748979Y-134230000D01*
%TO.N,Net-(U7-f)*%
X193900000Y-113920000D02*
X195831000Y-115851000D01*
X195831000Y-119799000D02*
X189400000Y-126230000D01*
X195831000Y-115851000D02*
X195831000Y-119799000D01*
%TO.N,Net-(U7-a)*%
X187900000Y-114570000D02*
X191940000Y-118610000D01*
X187900000Y-113920000D02*
X187900000Y-114570000D01*
%TO.N,output alarm strating signal*%
X189157371Y-134639000D02*
X188676371Y-135120000D01*
X184676370Y-135120000D02*
X183568000Y-136228370D01*
X197330000Y-138700869D02*
X197330000Y-137009397D01*
X176700000Y-126230000D02*
X176700000Y-127030000D01*
X189676371Y-129020000D02*
X190444371Y-129788000D01*
X176700000Y-127030000D02*
X178690000Y-129020000D01*
X197110370Y-142649000D02*
X197930000Y-141829370D01*
X197330000Y-137009397D02*
X194959603Y-134639000D01*
X197930000Y-141829370D02*
X197930000Y-139300869D01*
X188676371Y-135120000D02*
X184676370Y-135120000D01*
X190444371Y-129788000D02*
X191842888Y-129788000D01*
X195979000Y-142649000D02*
X197110370Y-142649000D01*
X193252888Y-132932285D02*
X196398118Y-136077515D01*
X183568000Y-140398000D02*
X185819000Y-142649000D01*
X193252888Y-131198000D02*
X193252888Y-132932285D01*
X194959603Y-134639000D02*
X189157371Y-134639000D01*
X183568000Y-136228370D02*
X183568000Y-140398000D01*
X197930000Y-139300869D02*
X197330000Y-138700869D01*
X191842888Y-129788000D02*
X193252888Y-131198000D01*
X178690000Y-129020000D02*
X189676371Y-129020000D01*
%TO.N,Net-(U7-b)*%
X181900000Y-113920000D02*
X182170000Y-113920000D01*
X182170000Y-113920000D02*
X186860000Y-118610000D01*
%TO.N,Net-(SW2A-C)*%
X174090000Y-113920000D02*
X167650000Y-120360000D01*
X175900000Y-115270000D02*
X179240000Y-118610000D01*
X175900000Y-113920000D02*
X175900000Y-115270000D01*
X175900000Y-113920000D02*
X174090000Y-113920000D01*
%TO.N,Net-(U7-c)*%
X179630000Y-113920000D02*
X184320000Y-118610000D01*
X178900000Y-113920000D02*
X179630000Y-113920000D01*
%TO.N,Net-(U7-e)*%
X184900000Y-114110000D02*
X189400000Y-118610000D01*
X184900000Y-113920000D02*
X184900000Y-114110000D01*
%TO.N,Net-(U7-d)*%
X190900000Y-113920000D02*
X190900000Y-115030000D01*
X190900000Y-115030000D02*
X194480000Y-118610000D01*
%TO.N,Net-(U7-g)*%
X191940000Y-126230000D02*
X196900000Y-121270000D01*
X196900000Y-121270000D02*
X196900000Y-113920000D01*
%TO.N,Net-(U8-E)*%
X180263052Y-86530000D02*
X182200000Y-88466948D01*
X180400000Y-107110000D02*
X180799397Y-107110000D01*
X181900000Y-103110000D02*
X180400000Y-104610000D01*
X182153500Y-93217605D02*
X182153500Y-99629292D01*
X181900000Y-92964105D02*
X182153500Y-93217605D01*
X179902500Y-86530000D02*
X180263052Y-86530000D01*
X180799397Y-107110000D02*
X181340397Y-107651000D01*
X182153500Y-99629292D02*
X181900000Y-99882792D01*
X181900000Y-90743871D02*
X181900000Y-92964105D01*
X180400000Y-104610000D02*
X180400000Y-107110000D01*
X181900000Y-99882792D02*
X181900000Y-103110000D01*
X182200000Y-90443870D02*
X181900000Y-90743871D01*
X181340397Y-107651000D02*
X183549000Y-107651000D01*
X182200000Y-88466948D02*
X182200000Y-90443870D01*
X183549000Y-107651000D02*
X184900000Y-106300000D01*
%TO.N,Net-(U8-B)*%
X192400000Y-103110000D02*
X194400000Y-101110000D01*
X194900000Y-101110000D02*
X195142500Y-100867500D01*
X195142500Y-100867500D02*
X195142500Y-96690000D01*
X181900000Y-106300000D02*
X185090000Y-103110000D01*
X194400000Y-101110000D02*
X194900000Y-101110000D01*
X185090000Y-103110000D02*
X192400000Y-103110000D01*
%TO.N,Net-(U8-D)*%
X177199001Y-105909001D02*
X177549000Y-106259000D01*
X178699397Y-108010000D02*
X180426605Y-108010000D01*
X186400000Y-105889397D02*
X187340397Y-104949000D01*
X179902500Y-89070000D02*
X177199001Y-91773499D01*
X180426605Y-108010000D02*
X180967605Y-108551000D01*
X180967605Y-108551000D02*
X184559603Y-108551000D01*
X186400000Y-106710603D02*
X186400000Y-105889397D01*
X177549000Y-106859603D02*
X178699397Y-108010000D01*
X184559603Y-108551000D02*
X186400000Y-106710603D01*
X187340397Y-104949000D02*
X189549000Y-104949000D01*
X177549000Y-106259000D02*
X177549000Y-106859603D01*
X189549000Y-104949000D02*
X190900000Y-106300000D01*
X177199001Y-91773499D02*
X177199001Y-105909001D01*
%TO.N,Net-(U8-C)*%
X178100001Y-105500001D02*
X178100001Y-95952499D01*
X178900000Y-106300000D02*
X178100001Y-105500001D01*
X178100001Y-95952499D02*
X179902500Y-94150000D01*
%TO.N,Net-(U8-G)*%
X200400000Y-108610000D02*
X200300000Y-108710000D01*
X200400000Y-91787500D02*
X200400000Y-108610000D01*
X195142500Y-86530000D02*
X200400000Y-91787500D01*
X199310000Y-108710000D02*
X196900000Y-106300000D01*
X200300000Y-108710000D02*
X199310000Y-108710000D01*
%TO.N,Net-(U8-A)*%
X192549000Y-106610000D02*
X191049000Y-108110000D01*
X199400000Y-102610000D02*
X199400000Y-96610000D01*
X196940000Y-94150000D02*
X195142500Y-94150000D01*
X195679397Y-102610000D02*
X199400000Y-102610000D01*
X192549000Y-106610000D02*
X192549000Y-105740397D01*
X199400000Y-96610000D02*
X196940000Y-94150000D01*
X189710000Y-108110000D02*
X187900000Y-106300000D01*
X191049000Y-108110000D02*
X189710000Y-108110000D01*
X192549000Y-105740397D02*
X195679397Y-102610000D01*
%TO.N,Net-(U8-F)*%
X197210000Y-109610000D02*
X193900000Y-106300000D01*
X195142500Y-89070000D02*
X193400000Y-87327500D01*
X195702103Y-85179000D02*
X201400000Y-90876897D01*
X193400000Y-85179000D02*
X195702103Y-85179000D01*
X201400000Y-90876897D02*
X201400000Y-109610000D01*
X193400000Y-87327500D02*
X193400000Y-85179000D01*
X201400000Y-109610000D02*
X197210000Y-109610000D01*
%TO.N,Net-(U10-Pad1)*%
X187170000Y-143838000D02*
X185819000Y-145189000D01*
X185819000Y-137569000D02*
X187170000Y-138920000D01*
X187170000Y-138920000D02*
X187170000Y-143838000D01*
%TO.N,Net-(R23-Pad1)*%
X174024752Y-138329000D02*
X176193888Y-138329000D01*
X184468000Y-136601162D02*
X185049162Y-136020000D01*
X185049162Y-136020000D02*
X189049163Y-136020000D01*
X164645000Y-158810715D02*
X164645000Y-151988629D01*
X189049163Y-136020000D02*
X189693888Y-136664725D01*
X188770000Y-156062888D02*
X182661888Y-162171000D01*
X166136285Y-160302000D02*
X164645000Y-158810715D01*
X164562888Y-151906517D02*
X164562888Y-147790864D01*
X184468000Y-138758000D02*
X184468000Y-136601162D01*
X182661888Y-162171000D02*
X173328784Y-162171000D01*
X171459784Y-160302000D02*
X166136285Y-160302000D01*
X189693888Y-139630542D02*
X188770000Y-140554430D01*
X185819000Y-140109000D02*
X184468000Y-138758000D01*
X164645000Y-151988629D02*
X164562888Y-151906517D01*
X188770000Y-140554430D02*
X188770000Y-156062888D01*
X164562888Y-147790864D02*
X174024752Y-138329000D01*
X173328784Y-162171000D02*
X171459784Y-160302000D01*
X189693888Y-136664725D02*
X189693888Y-139630542D01*
%TO.N,Net-(C8-Pad1)*%
X187170000Y-153368603D02*
X184418603Y-156120000D01*
X172974000Y-158949000D02*
X174845000Y-160820000D01*
X187170000Y-149080000D02*
X187170000Y-153368603D01*
X179545000Y-156120000D02*
X174845000Y-160820000D01*
X184418603Y-156120000D02*
X179545000Y-156120000D01*
X166693888Y-158949000D02*
X172974000Y-158949000D01*
X185819000Y-147729000D02*
X187170000Y-149080000D01*
%TO.N,Net-(U14-Vs)*%
X203295000Y-170730000D02*
X207670000Y-175105000D01*
X207517349Y-165920000D02*
X207480000Y-165920000D01*
X207480000Y-165920000D02*
X202670000Y-170730000D01*
X202670000Y-170730000D02*
X203295000Y-170730000D01*
D42*
%TO.N,Net-(R10-Pad1)*%
X197180000Y-144691529D02*
X196408471Y-143920000D01*
X196408471Y-143920000D02*
X195551529Y-143920000D01*
X195551529Y-143920000D02*
X194778000Y-143146471D01*
X197180000Y-139611529D02*
X196338471Y-138770000D01*
D40*
X190645000Y-156651370D02*
X190645000Y-141428563D01*
D42*
X197180000Y-140910000D02*
X197180000Y-139611529D01*
D40*
X172013629Y-163120000D02*
X173013629Y-164120000D01*
D42*
X195979000Y-147729000D02*
X197180000Y-146528000D01*
D40*
X162545000Y-146988630D02*
X162545000Y-159651371D01*
X162545000Y-159651371D02*
X166013629Y-163120000D01*
X183176371Y-164120000D02*
X190645000Y-156651370D01*
D42*
X194778000Y-143146471D02*
X194778000Y-142151529D01*
X194778000Y-142151529D02*
X195509529Y-141420000D01*
X196338471Y-138770000D02*
X193303563Y-138770000D01*
D40*
X170980000Y-138553630D02*
X162545000Y-146988630D01*
D42*
X193303563Y-138770000D02*
X192829611Y-139243952D01*
D40*
X170980000Y-131420000D02*
X170980000Y-138553630D01*
X190645000Y-141428563D02*
X192829611Y-139243952D01*
D42*
X196670000Y-141420000D02*
X197180000Y-140910000D01*
X197180000Y-146528000D02*
X197180000Y-144691529D01*
X195509529Y-141420000D02*
X196670000Y-141420000D01*
D40*
X173013629Y-164120000D02*
X183176371Y-164120000D01*
X166013629Y-163120000D02*
X172013629Y-163120000D01*
%TO.N,Net-(R24-Pad1)*%
X208193888Y-153449000D02*
X196619000Y-153449000D01*
X210693888Y-150949000D02*
X210693888Y-144849000D01*
X210693888Y-144849000D02*
X207783888Y-141939000D01*
X195979000Y-152809000D02*
X195979000Y-153111000D01*
X208193888Y-153449000D02*
X210693888Y-150949000D01*
X196619000Y-153449000D02*
X195979000Y-152809000D01*
%TO.N,Net-(C9-Pad1)*%
X196635258Y-131139000D02*
X195503888Y-131139000D01*
X203899000Y-138402742D02*
X196635258Y-131139000D01*
X199769000Y-150269000D02*
X203899000Y-146139000D01*
X204209000Y-145829000D02*
X203899000Y-146139000D01*
X203899000Y-146139000D02*
X203899000Y-138402742D01*
X195979000Y-150269000D02*
X199769000Y-150269000D01*
X208193888Y-145829000D02*
X204209000Y-145829000D01*
%TO.N,Net-(Q1-B)*%
X167716976Y-35890000D02*
X167294000Y-35467024D01*
X168595000Y-35890000D02*
X167716976Y-35890000D01*
X167294000Y-35467024D02*
X167294000Y-33231000D01*
X167294000Y-33231000D02*
X169405000Y-31120000D01*
%TO.N,Net-(Q1-E)*%
X168595000Y-40310000D02*
X168595000Y-37160000D01*
%TO.N,Net-(Q2-B)*%
X175422888Y-152098000D02*
X175422888Y-146720000D01*
X175463888Y-152139000D02*
X175422888Y-152098000D01*
X175422888Y-146720000D02*
X176193888Y-145949000D01*
%TO.N,Net-(Q3-B)*%
X208083888Y-129129000D02*
X206976888Y-129129000D01*
X206976888Y-129129000D02*
X206782888Y-129323000D01*
X206782888Y-129323000D02*
X206782888Y-133318000D01*
X206782888Y-133318000D02*
X207783888Y-134319000D01*
%TO.N,Net-(Q3-E)*%
X203200582Y-128899000D02*
X202723888Y-128899000D01*
X204240582Y-127859000D02*
X203200582Y-128899000D01*
X208083888Y-127859000D02*
X204240582Y-127859000D01*
%TO.N,Net-(D7-A)*%
X170595000Y-61780000D02*
X174445000Y-61780000D01*
X174445000Y-61780000D02*
X174595000Y-61930000D01*
%TO.N,Net-(D6-K)*%
X156595000Y-58620000D02*
X153595000Y-58620000D01*
X153595000Y-58620000D02*
X153095000Y-59120000D01*
%TO.N,Net-(D9-K)*%
X143135000Y-39800000D02*
X145595000Y-37340000D01*
X142595000Y-39800000D02*
X143135000Y-39800000D01*
%TO.N,Net-(D8-A)*%
X139595000Y-35840000D02*
X141015000Y-34420000D01*
X139595000Y-39800000D02*
X139595000Y-35840000D01*
%TO.N,Net-(D6-A)*%
X167635000Y-51890000D02*
X165095000Y-54430000D01*
X165095000Y-56960000D02*
X166755000Y-58620000D01*
X167905000Y-51620000D02*
X167635000Y-51890000D01*
X170595000Y-51620000D02*
X167905000Y-51620000D01*
X165095000Y-54430000D02*
X165095000Y-56960000D01*
%TO.N,Net-(J1-Pin_1)*%
X137400000Y-146420000D02*
X143400000Y-140420000D01*
X143400000Y-140420000D02*
X143400000Y-106140000D01*
X143400000Y-106140000D02*
X140500000Y-103240000D01*
%TO.N,Net-(J1-Pin_2)*%
X137400000Y-86020000D02*
X140500000Y-82920000D01*
X137400000Y-143920000D02*
X137400000Y-86020000D01*
D41*
%TO.N,ground*%
X144308818Y-59476000D02*
X143576000Y-58743182D01*
D40*
X157300113Y-52120000D02*
X157300113Y-47940113D01*
D41*
X141036000Y-56974000D02*
X139785000Y-58225000D01*
D40*
X150595000Y-45420000D02*
X150095000Y-45420000D01*
D41*
X158595000Y-53575000D02*
X158595000Y-53414887D01*
D40*
X150897000Y-41920000D02*
X150095000Y-41920000D01*
D41*
X142843182Y-56974000D02*
X141036000Y-56974000D01*
X143576000Y-58743182D02*
X143576000Y-57706818D01*
D40*
X151246000Y-46071000D02*
X150595000Y-45420000D01*
X150095000Y-45420000D02*
X150095000Y-41920000D01*
X166344000Y-37066850D02*
X164897150Y-35620000D01*
X150319000Y-52851000D02*
X146095000Y-57075000D01*
D41*
X163725000Y-51403955D02*
X163725000Y-52376045D01*
X146116000Y-57096000D02*
X146116000Y-58743182D01*
D40*
X166344000Y-45679000D02*
X166240000Y-45575000D01*
X168595000Y-47930000D02*
X166344000Y-45679000D01*
X146054000Y-51956000D02*
X147964603Y-51956000D01*
X157300113Y-47940113D02*
X157300113Y-50075000D01*
D41*
X145383182Y-59476000D02*
X144308818Y-59476000D01*
X146116000Y-58743182D02*
X145383182Y-59476000D01*
X162526045Y-53575000D02*
X158595000Y-53575000D01*
D40*
X153095000Y-39722000D02*
X150897000Y-41920000D01*
X147964603Y-51956000D02*
X151246000Y-48674603D01*
D41*
X158595000Y-53414887D02*
X157300113Y-52120000D01*
D40*
X151246000Y-48674603D02*
X151246000Y-46071000D01*
X161596000Y-46574000D02*
X161095000Y-47075000D01*
X166344000Y-45679000D02*
X166344000Y-37066850D01*
X167239000Y-46574000D02*
X161596000Y-46574000D01*
X157285000Y-47925000D02*
X157285000Y-49220603D01*
X157300113Y-47940113D02*
X157285000Y-47925000D01*
D41*
X161095000Y-47075000D02*
X161095000Y-48773955D01*
D40*
X166344000Y-45679000D02*
X166344000Y-40575000D01*
D41*
X146095000Y-57075000D02*
X146116000Y-57096000D01*
D40*
X164897150Y-35620000D02*
X164095000Y-35620000D01*
D41*
X161095000Y-48773955D02*
X163725000Y-51403955D01*
D40*
X139785000Y-58225000D02*
X146054000Y-51956000D01*
D41*
X143576000Y-57706818D02*
X142843182Y-56974000D01*
D40*
X157285000Y-49220603D02*
X153654603Y-52851000D01*
X153095000Y-30120000D02*
X153095000Y-39722000D01*
X168595000Y-47930000D02*
X167239000Y-46574000D01*
D41*
X163725000Y-52376045D02*
X162526045Y-53575000D01*
D40*
X153654603Y-52851000D02*
X150319000Y-52851000D01*
%TO.N,+12*%
X167245000Y-40870603D02*
X167244999Y-36695057D01*
X163136000Y-30560397D02*
X163136000Y-32428000D01*
X174595000Y-54310000D02*
X174595000Y-51660000D01*
X168429000Y-60476000D02*
X138523496Y-60476000D01*
X174595000Y-52918000D02*
X170958000Y-49281000D01*
X155946000Y-29769000D02*
X162344603Y-29769000D01*
X137534000Y-59486504D02*
X137534000Y-52856000D01*
X155595000Y-30120000D02*
X155946000Y-29769000D01*
X174595000Y-54310000D02*
X168429000Y-60476000D01*
X138523496Y-60476000D02*
X137534000Y-59486504D01*
X170958000Y-49281000D02*
X166261000Y-49281000D01*
X167244999Y-36695057D02*
X165018942Y-34469000D01*
X139785000Y-50605000D02*
X139785000Y-47610000D01*
X166261000Y-49281000D02*
X164905000Y-47925000D01*
X165018942Y-34469000D02*
X161095000Y-34469000D01*
X137534000Y-52856000D02*
X139785000Y-50605000D01*
X163136000Y-32428000D02*
X161095000Y-34469000D01*
X174034397Y-47660000D02*
X167245000Y-40870603D01*
X139785000Y-47610000D02*
X139595000Y-47420000D01*
X161095000Y-34469000D02*
X160246000Y-34469000D01*
X174595000Y-54310000D02*
X174595000Y-52918000D01*
X162344603Y-29769000D02*
X163136000Y-30560397D01*
X178595000Y-47660000D02*
X174034397Y-47660000D01*
X160246000Y-34469000D02*
X157285000Y-37430000D01*
X157285000Y-37430000D02*
X157285000Y-40305000D01*
X174595000Y-51660000D02*
X178595000Y-47660000D01*
%TD*%
M02*
